HIERARCHY
ROOT Hips
{
	OFFSET	0.00	0.00	0.00
	CHANNELS 6 Xposition Yposition Zposition Zrotation Xrotation Yrotation
	JOINT LeftHip
	{
		OFFSET	 3.430000	 0.000000	 0.000000
		CHANNELS 3 Zrotation Xrotation Yrotation
		JOINT LeftKnee
		{
			OFFSET	 0.000000	-18.469999	 0.000000
			CHANNELS 3 Zrotation Xrotation Yrotation
			JOINT LeftAnkle
			{
				OFFSET	 0.000000	-17.950001	 0.000000
				CHANNELS 3 Zrotation Xrotation Yrotation
				End Site 
				{
					OFFSET	 0.000000	-3.119996	 0.000000
				}
			}
		}
	}
	JOINT RightHip
	{
		OFFSET	-3.430000	 0.000000	 0.000000
		CHANNELS 3 Zrotation Xrotation Yrotation
		JOINT RightKnee
		{
			OFFSET	 0.000000	-18.809999	 0.000000
			CHANNELS 3 Zrotation Xrotation Yrotation
			JOINT RightAnkle
			{
				OFFSET	 0.000000	-17.570000	 0.000000
				CHANNELS 3 Zrotation Xrotation Yrotation
				End Site 
				{
					OFFSET	 0.000000	-3.250000	 0.000000
				}
			}
		}
	}
	JOINT Chest
	{
		OFFSET	 0.000000	 4.570000	 0.000000
		CHANNELS 3 Zrotation Xrotation Yrotation
		JOINT LeftCollar
		{
			OFFSET	 1.060000	 15.330000	 1.760000
			CHANNELS 3 Zrotation Xrotation Yrotation
			JOINT LeftShoulder
			{
				OFFSET	 5.810000	 0.000000	 0.000000
				CHANNELS 3 Zrotation Xrotation Yrotation
				JOINT LeftElbow
				{
					OFFSET	 0.000000	-12.080000	 0.000000
					CHANNELS 3 Zrotation Xrotation Yrotation
					JOINT LeftWrist
					{
						OFFSET	 0.000000	-9.820000	 0.000000
						CHANNELS 3 Zrotation Xrotation Yrotation
						End Site 
						{
							OFFSET	 0.000000	-7.369996	 0.000000
						}
					}
				}
			}
		}
		JOINT RightCollar
		{
			OFFSET	-1.060000	 15.330000	 1.760000
			CHANNELS 3 Zrotation Xrotation Yrotation
			JOINT RightShoulder
			{
				OFFSET	-6.060000	 0.000000	 0.000000
				CHANNELS 3 Zrotation Xrotation Yrotation
				JOINT RightElbow
				{
					OFFSET	 0.000000	-11.900000	 0.000000
					CHANNELS 3 Zrotation Xrotation Yrotation
					JOINT RightWrist
					{
						OFFSET	 0.000000	-9.520000	 0.000000
						CHANNELS 3 Zrotation Xrotation Yrotation
						End Site 
						{
							OFFSET	 0.000000	-7.140012	 0.000000
						}
					}
				}
			}
		}
		JOINT Neck
		{
			OFFSET	 0.000000	 17.620001	 0.000000
			CHANNELS 3 Zrotation Xrotation Yrotation
			JOINT Head
			{
				OFFSET	 0.000000	 5.190000	 0.000000
				CHANNELS 3 Zrotation Xrotation Yrotation
				End Site 
				{
					OFFSET	 0.000000	 4.140008	 0.000000
				}
			}
		}
	}
}

MOTION
Frames: 14
Frame Time: 0.033333
-37.2656 1.3988 -40.3405 -29.246 -3.74993 121.837 11.6354 -43.3393 21.2113 2.78459 31.0725 -4.09099 -13.5083 -3.73736 5.0184 -28.9342 -48.9156 -34.7506 -7.90577 25.8061 12.694 6.03548 0.0672373 7.3867 21.8799 50.825 -8.48104 0 0 0 6.56567 -27.7757 14.168 -33.0549 -39.8929 -18.0425 38.4766 -31.9112 -17.4623 0 0 0 -50.7304 -44.7256 -60.5383 20.9027 -42.892 16.9793 -39.1183 -19.1082 42.1829 0 0 0 -13.8303 -43.8174 -21.3239 
-37.2958 1.4013 -40.3179 -29.2143 -3.59304 121.713 11.4403 -43.1267 21.1607 2.83604 30.9476 -4.07897 -13.5087 -3.75182 5.08473 -28.6933 -48.9535 -34.3344 -7.88353 25.7633 12.7116 5.91544 0.1236 7.26452 21.2211 50.8347 -7.9618 0 0 0 6.51329 -28.1973 13.5409 -32.6158 -39.7066 -17.746 38.6515 -31.2803 -16.8987 0 0 0 -51.2781 -47.6119 -57.3587 23.0221 -44.6346 18.4665 -38.9 -21.3583 43.3517 0 0 0 -14.2759 -44.6931 -21.0623 
-37.3133 1.3862 -40.2451 -28.9282 -3.47224 121.776 11.4123 -42.7637 21.0579 2.83838 30.7889 -4.08491 -13.5496 -3.64945 5.07933 -28.2675 -48.7234 -33.856 -7.86053 25.7032 12.7054 5.79212 0.160864 7.08113 20.6236 50.8116 -7.51672 0 0 0 6.4755 -28.4652 12.9033 -32.126 -39.4785 -17.2579 38.772 -30.7609 -16.6371 0 0 0 -51.2022 -50.1483 -54.8001 26.3301 -47.2743 21.2867 -39.5228 -26.3597 46.7879 0 0 0 -14.6512 -45.5531 -20.8905 
-37.3158 1.3837 -40.1547 -28.5382 -3.37428 121.937 11.5762 -42.3314 21.1588 2.84185 30.5763 -4.11194 -13.6343 -3.40671 4.86592 -27.6375 -48.3317 -33.1912 -7.84182 25.5868 12.681 5.65951 0.163353 6.77063 19.9499 50.7072 -7.034 0 0 0 6.41209 -28.5574 12.3926 -31.6159 -39.2088 -16.7634 39.0568 -30.3796 -16.3945 0 0 0 -51.1906 -52.5335 -54.3163 31.0933 -49.8738 25.5348 -39.7771 -30.5058 50.9278 0 0 0 -14.8882 -46.4816 -20.7432 
-37.2807 1.4013 -40.0417 -28.026 -3.32078 122.24 11.9926 -41.7976 21.3872 2.80958 30.2674 -4.14249 -13.8218 -2.99819 4.48886 -26.7859 -47.669 -32.3314 -7.82043 25.3241 12.6338 5.54525 0.126735 6.28041 19.2533 50.5113 -6.57415 0 0 0 6.40203 -28.4129 12.0425 -31.3035 -38.9547 -16.4763 39.5786 -30.0047 -15.9033 0 0 0 -50.9486 -54.4315 -54.4595 36.0978 -51.9395 30.0214 -40.2383 -34.4275 53.3163 0 0 0 -14.9807 -47.5003 -20.7959 
-37.2078 1.4189 -39.9011 -27.3209 -3.44676 122.895 12.4884 -41.2647 21.4074 2.75987 29.8669 -4.02038 -14.0371 -2.39035 3.79501 -25.9081 -46.7651 -31.7847 -7.79129 24.9921 12.5665 5.42793 0.110347 5.72671 18.9914 50.2166 -6.53986 0 0 0 6.52742 -28.0416 11.9189 -31.2585 -38.7852 -16.413 40.069 -29.6125 -15.451 0 0 0 -50.0722 -55.0833 -53.9989 40.2084 -53.4776 33.6883 -41.459 -38.1596 52.9396 0 0 0 -15.2425 -48.5914 -21.163 
-37.1074 1.4691 -39.7404 -26.6625 -3.61216 123.634 13.1221 -40.8415 21.6006 2.72369 29.4781 -3.91576 -14.3205 -1.65529 2.95984 -25.0923 -45.8903 -31.3282 -7.75409 24.6429 12.4912 5.28223 0.0928319 5.09401 18.6706 49.8192 -6.47737 0 0 0 6.7268 -27.6335 11.8906 -31.2891 -38.6214 -16.4047 40.5624 -29.2331 -15.06 0 0 0 -48.8746 -55.5761 -53.4452 44.4472 -54.7791 37.3838 -42.7007 -43.0879 51.9236 0 0 0 -15.647 -49.8516 -21.7575 
-37.002 1.4967 -39.5671 -26.0252 -3.9122 124.447 13.831 -40.4536 21.9975 2.68388 29.1995 -3.81955 -14.7354 -0.871469 2.50089 -24.3443 -45.1461 -31.1307 -7.72792 24.4195 12.4276 5.10801 0.0227296 4.503 18.2826 49.3691 -6.36614 0 0 0 7.04465 -27.1113 12.1234 -31.5884 -38.603 -16.653 41.0753 -29.7319 -15.3692 0 0 0 -46.8815 -55.2057 -52.3945 47.3966 -55.6978 39.6901 -45.7136 -48.8528 48.2905 0 0 0 -16.2404 -51.0896 -22.8509 
-36.909 1.4942 -39.4239 -25.4807 -4.26679 125.147 14.5466 -40.0262 22.6628 2.70194 29.1117 -3.84652 -15.0869 -0.398306 2.20015 -23.7322 -44.6106 -31.0998 -7.70111 24.3884 12.2918 4.94533 -0.131856 4.13581 17.9286 48.9643 -6.29545 0 0 0 7.41475 -26.5181 12.5948 -32.1287 -38.7376 -17.0913 41.4775 -30.2562 -15.576 0 0 0 -45.0545 -54.8304 -51.4509 47.8924 -55.8088 40.0235 -50.5369 -54.1469 42.8019 0 0 0 -16.9586 -52.1678 -24.1562 
-36.8262 1.5067 -39.3285 -25.1907 -4.60298 125.671 15.1217 -39.7852 23.4824 2.86134 29.2238 -3.88822 -15.3336 -0.209777 1.95981 -23.259 -44.393 -31.0956 -7.67409 24.5139 12.1811 4.73421 -0.352503 3.84857 17.5288 48.583 -6.14388 0 0 0 7.71292 -26.0894 13.1451 -32.5871 -38.8429 -17.6085 41.8983 -30.7086 -15.5326 0 0 0 -43.8109 -54.6787 -50.7133 46.1525 -55.2458 38.5606 -56.6853 -58.0134 36.0788 0 0 0 -17.7683 -53.244 -25.5042 
-36.7785 1.4741 -39.2481 -24.9549 -4.9347 126.099 15.7053 -39.6863 24.278 2.89605 29.698 -4.05794 -15.4661 -0.441024 2.02576 -22.9225 -44.3962 -31.1891 -7.69159 24.992 12.1882 4.51191 -0.759121 3.57411 17.1865 48.2469 -6.01271 0 0 0 7.91828 -25.9279 13.6269 -32.9504 -38.9051 -18.0692 42.1698 -31.0934 -15.4552 0 0 0 -43.4983 -55.0419 -50.1835 40.9346 -53.4752 34.4374 -55.8722 -55.3816 34.4509 0 0 0 -18.7188 -54.2291 -26.9785 
-36.8488 1.2707 -39.1602 -24.5749 -5.24438 126.412 16.1553 -39.5369 24.8129 2.95884 30.3914 -4.2634 -15.4814 -0.939499 2.36462 -22.5859 -44.487 -31.2696 -7.72506 25.761 12.2775 4.31024 -1.25027 3.3393 16.9884 48.1657 -5.86089 0 0 0 8.02134 -26.0755 13.8874 -33.1955 -38.9774 -18.3617 42.4221 -31.1702 -15.3984 0 0 0 -43.6718 -55.5488 -50.0056 35.2038 -51.1349 29.7058 -51.5641 -50.8193 34.8884 0 0 0 -19.6404 -55.1456 -28.437 
-36.9492 1.0597 -39.1025 -24.3329 -5.45125 126.579 16.4292 -39.4935 25.1692 3.04809 31.3086 -4.62482 -15.4747 -1.73447 3.09372 -22.487 -44.7653 -31.4825 -7.78685 26.7237 12.4194 4.08761 -1.80961 3.23972 16.6977 48.1721 -5.56751 0 0 0 7.99929 -26.5958 13.9062 -33.3027 -38.9902 -18.5116 42.644 -31.2034 -15.3959 0 0 0 -44.0813 -56.0343 -49.6337 29.6609 -48.191 25.4851 -48.8142 -46.8854 35.2626 0 0 0 -20.4866 -56.0206 -29.8393 
-37.0848 0.8061 -39.0623 -24.054 -5.60654 126.647 16.5493 -39.4199 25.314 3.10915 32.3092 -4.94167 -15.3271 -2.71125 3.98156 -22.4165 -45.0562 -31.7402 -7.89471 27.748 12.6232 3.89516 -2.38538 3.24401 16.4215 48.2874 -5.30424 0 0 0 7.91823 -27.2886 13.8188 -33.4288 -39.0094 -18.6588 42.8261 -31.1655 -15.3084 0 0 0 -44.6853 -56.6045 -49.2139 24.8785 -45.2664 21.9344 -46.2369 -42.7264 36.5532 0 0 0 -21.1614 -56.7511 -31.0394 
